<svg xmlns="http://www.w3.org/2000/svg" width="1280" height="719"><path fill="#FEFEFE" d="M0 0h1280v719H0z"/><path fill="#564947" d="M960 88h5v159l38-1c8.461-.06 16.915-.1 25.375-.062q3.064.008 6.129.013 7.248.016 14.496.049v-3h-46v-40h46v-2h-46v-7h46v-2h-46v-7h46v-2h-46v-7h46v-2h-46c0-6 0-6 1-7 1.873-.1 3.75-.13 5.625-.133l3.56-.006 3.815.014 3.839.006c9.418.043 18.774.368 28.161 1.119v-3h-46v-8l-23-1v-5h47v-14h-16v-3h37v-27h-20v-4h20v-8h6v8h72v4h-73v20h34v10h-33v15h91v7h-27v88h10v6h-74v33h-10v3h66v-19h15v92c-98.3.15-98.3.15-136-1v-3h-15v-2h14v-6h23v-21h-16v-1l-2.004-.076q-4.467-.175-8.933-.361l-3.155-.12-2.998-.127-2.777-.11C973 327 973 327 972 326q-.062-3.5 0-7l-5 1-1 3h-35v33h21v1l-21 1v163h104v-13h1v15c-21.717.914-43.42 1.282-65.153 1.532q-6.6.079-13.199.161-12.823.159-25.648.307l-1 20h-4v-20H824v-4h54v-65h-27l1 12c.073 2.88.12 5.732.098 8.61l-.003 1.988c-.006 2.384-.02 4.768-.033 7.152L852 502h-59v-46h-19l-12-1v49h-3v-53h16v2h103v-14l-2.953.016c-28.645.137-57.28-.142-85.922-.516l-2.78-.036Q769.172 438.239 752 438v-4a10091 10091 0 0 1 27.86-.065c29.881-.033 59.76.248 89.64.565l3.421.036q21.04.224 42.079.464v4h-34v14h24l-1 4h-22v11h19v19h-20v34h46V359l-23 1c-5.485.06-10.954.1-16.437.063q-2.011-.009-4.022-.014-4.77-.018-9.541-.049v-3h53v-33H767v-7h32c-.039-4.92-.039-4.92-.09-9.838-.029-7.462.589-14.641 1.09-22.162h-53v-6c34.452-.123 68.904.192 103.355.445q12.566.092 25.133.182 25.755.184 51.512.373v-34h33z"/><path fill="#110F0E" d="M960 88h5v159l38-1c8.461-.06 16.915-.1 25.375-.062q3.064.008 6.129.013 7.248.016 14.496.049v-3h-46v-40h46v-2h-46v-7h46v-2h-46v-7h46v-2h-46v-7h46v-2h-46c0-6 0-6 1-7 1.873-.1 3.75-.13 5.625-.133l3.56-.006 3.815.014 3.839.006c9.418.043 18.774.368 28.161 1.119v-3h-46v-8l-23-1v-5h47v-14h-16v-3h37v-27h-20v-4h20v-8h6v8h72v4h-73v20h34v10h-33v15h91v7h-27v88h10v6h-74v33h-11l-1 5-2-2v-3l-3.49.092c-24.237.632-48.426 1.22-72.67.681l-3.017-.065A9854 9854 0 0 1 931 286v10l-3 1-1-11-180-1v-6c34.452-.123 68.904.192 103.355.445q12.566.092 25.133.182 25.755.184 51.512.373v-34h33z"/><path fill="#040404" d="M967 319h5l1 7 38 1v23h-23v6h-14v2h15v3h48v1h-50v-3h-14v27h65v46h18v3h-18v12h10v3h-10v53h11v4h-12v18H932v-1q14.139-.2 28.277-.391 6.57-.09 13.14-.182c20.863-.294 41.718-.512 62.583-.427l-1-2H931V358l2-1-2-1v-33h35z"/><path fill="#0E0707" d="M1187 128h1c.815 11.116 1.16 22.167 1.19 33.31q.011 2.509.025 5.018.027 5.375.045 10.75.033 8.658.077 17.316.081 17 .15 34a78204 78204 0 0 0 .246 54.348c.15 31.701.44 63.399.829 95.098.341 27.87.582 55.733.507 83.605q-.014 6.818-.02 13.637-.015 12.96-.049 25.918h-6v-10h-30v10h-6a329453 329453 0 0 1-.055-125.085v-2.677q-.008-21.212-.022-42.424-.015-21.907-.017-43.813a31647 31647 0 0 0-.012-24.49c-.038-42.181.297-84.338 1.106-126.511h1l1 9 33-1z"/><path fill="#494949" d="M906 102h20v92h-17v32h-52v3h-11v13h-51v-33h-13v-16h-20v-3h19v-19h-18v-4h19v-22h61v-21h45v66h4l-.035-3.965c-.133-23.684.503-47.359 1.035-71.035h13z"/><path fill="#040404" d="M1110 270h15v92c-98.3.15-98.3.15-136-1v-3h-15v-2h14v-6h23v-21h-16v-1l15-1v-22l-6.469.035c-23.192.095-46.35-.349-69.531-1.035l1-2h106v-9h1l1 7 66 1v-9h-65l1-2h65z"/><path fill="#131212" d="M841 304h1l1 14h85v-13h3v13h42v8h-1v-7l-5 1-1 3h-35v33h21v1l-21 1v163h104v-13h1v15c-21.717.914-43.42 1.282-65.153 1.532q-6.6.079-13.199.161-12.823.159-25.648.307l-1 20h-4v-20H824v-4h54v-65h-27l1 12c.073 2.88.12 5.732.098 8.61l-.003 1.988c-.006 2.384-.02 4.768-.033 7.152L852 502h-59v-46h-19l-12-1v49h-3v-53h16v2h103v-14l-2.953.016c-28.645.137-57.28-.142-85.922-.516l-2.78-.036Q769.172 438.239 752 438v-4q12.906-.048 25.813-.062l2.046-.003c29.882-.033 59.76.248 89.641.565l3.421.036q21.04.224 42.079.464v4h-34v14h24l-1 4h-22v11h19v19h-20v34h46V359l-23 1c-5.485.06-10.954.1-16.437.063q-2.011-.009-4.022-.014-4.77-.018-9.541-.049v-3h53v-34H768v-5h72z"/><path fill="#171717" d="M906 102h20v92h-17v32h-53v2h-10v-1l8-1 1-16h1l1 12 8 1v-14h-6l-1-2 7-1 1-11h1v11h18l-1-12-17-1 2-2h15v-63h-26v40h9c.087 3.604.14 7.208.188 10.813l.076 3.103.029 2.979.048 2.745C867 190 867 190 865.712 191.776c-2.679 1.915-5.499 1.92-8.712 2.224l-1 12h-1c-1.4-11.629-1.097-23.31-1-35h-8v-1h7v-2h-7l-1-16-1 15h-1v-19l-4.032.108q-7.481.195-14.962.374-3.224.08-6.447.166c-21.98.587-21.98.587-32.559-.648v20h10l-1 2-9 1-1 19 12-1 1-17h1l1 17 3.732.076q6.837.142 13.675.296 2.963.066 5.925.125 4.253.088 8.504.187l2.686.05c6.25.152 6.25.152 8.478 1.266v2l-43 1-1 12h46v-11h1v11h9v3h-56l1 17 43 1v1h-44v11h46v-9h1v11h-49v-32h-14v-16h-20v-3h19v-19h-18v-4h19v-22h61v-21h45v66h4l-.035-3.965c-.133-23.684.503-47.359 1.035-71.035h13z"/><path fill="#FDFDFD" d="M932 359h35v73h-6v3h6v73h67v13H932z"/><path fill="#F8F9F6" d="M1055 158h60v89h-61v-14h44v-3h-43z"/><path fill="#040404" d="M852.938 334.625c4.131 3.164 7.71 6.671 10.062 11.375.203 2.182.314 4.372.375 6.563l.148 3.566C863 360 863 360 858 369h32v32c-12.687-.062-12.687-.062-16.663-.153-3.315.058-6.148.22-9.337 1.153-2.024 2.21-3.025 4.13-4.1 6.916-.9 2.084-.9 2.084-3.712 3.647L854 413v2c-7.12 4.556-13.657 4.983-22 4-4.982-1.595-8.611-5.098-12-9v-2l-3-1v-5h35v-30l-9.562.313-2.971.075c-6.564.273-11.783.956-16.647 5.768l-1.695 2.344-1.742 2.344c-3.595 5.605-2.764 9.732-3.383 17.156h-36v-35h44l-3-8c-.763-5.45-1.342-11.306 1.172-16.352 7.325-8.873 20.672-12.51 30.765-6.023"/><path fill="#8CB7D4" d="M1090 396h5v50h38v48h-38v21h-7v-21h-16l-1-4h-7v-7h7v-38h14v-40h4z"/><path fill="#FBC622" d="M1152 220h33v106h-31v-30h-2z"/><path fill="#626261" d="M785 148h58l1 4 2-3v19h7c1.232 3.695 1.124 7.103 1.098 10.95l-.003 2.075c-.006 2.554-.02 5.108-.033 7.662L854 206h-56c0-12 0-12 1-13a57 57 0 0 1 4.06-.114h2.61l2.834.016 2.888.005c3.057.005 6.114.018 9.17.03q3.102.008 6.202.014 7.617.017 15.236.049v-2a125564 125564 0 0 0-33.3-.781l-2.804-.067-2.608-.06-2.295-.054A262 262 0 0 0 796 190h-12q-.042-4.72-.062-9.437l-.026-2.721-.01-2.588-.016-2.396C784 171 784 171 785 170c2.989-.458 5.99-.703 9-1l-9-1z"/><path fill="#2D261B" d="M906 102h20v92h-17v32h-42v-1h41v-2h-2v-14h2v-3h-21v-12l7-2-6-1 4-1-.035-3.965c-.133-23.684.503-47.359 1.035-71.035h13z"/><path fill="#FCFCFC" d="M932 253h70v8h46v19H932z"/><path fill="#FB542E" d="M793 456h58c1.15 13.794 1.15 13.794 1.098 20.61l-.003 1.988c-.006 2.384-.02 4.768-.033 7.152L852 502h-59z"/><path fill="#F55A37" d="M979 151h1v5h42v1h-19v8h46v3h-45l-1 6h46v2h-46v7h46v2h-46v7h46v2h-46v7h46v2h-47c.04 13.777.04 13.777.09 27.554l.008 5.16.015 2.733c0 2.185-.05 4.37-.113 6.553l-1 1h-22z"/><path fill="#0B0B0B" d="M841 304h1l1 14h85v-13h3v13h42v8h-1v-7l-5 1-1 3h-35v33h21v1l-21 1v163h104v-13h1v15c-21.717.914-43.42 1.282-65.153 1.532q-6.6.079-13.199.161-12.823.159-25.648.307l-1 20h-4l-1-20-22-2v-1h24l-.092-7.103q-.212-16.668-.408-33.335l-.036-3.05c-.346-29.546-.559-59.088-.527-88.637l.003-2.412q.016-14.231.06-28.463l-1.85.09c-12.54.607-25.033 1.057-37.587.973q-2.011-.009-4.022-.014-4.77-.018-9.541-.049v-3h53v-34H768v-5h72z"/><path fill="#FA522F" d="M1152 149h34v68h-34z"/><path fill="#FDC722" d="M1043 304h67v34h-67z"/><path fill="#0D0707" d="M1187 128h1c1.06 13.267 1.163 26.482 1.168 39.785l.01 6.819q.009 7.106.007 14.213c0 6.033.014 12.067.031 18.1q.015 7.027.013 14.056 0 3.334.013 6.67c.038 11.96-.173 23.552-2.242 35.357h-1c-.873-5.239-1.134-10.253-1.098-15.559l.005-2.391c.005-2.496.018-4.992.03-7.488q.008-2.553.014-5.107c.01-4.152.03-8.303.049-12.455h-33v76h2v60h31v1c-10.361.702-20.61 1.11-31 1v12h-2v20l34 1v2h-2v2h-2v2c-2.714 1.357-4.848 1.112-7.883 1.098l-3.535-.01-3.707-.026-3.73-.013q-4.573-.02-9.145-.049v19h30v1l-30 1 .063 9.563a452 452 0 0 1-.563 23.937c-.383 7.918-.635 15.823-.687 23.75l-.04 2.834-.003 2.62-.013 2.3c.13 2.314.13 2.314 2.243 4.996.195 2.918.195 2.918.125 6.188l-.055 3.292-.07 2.52h-6a329453 329453 0 0 1-.055-125.085v-2.677q-.008-21.212-.022-42.424-.015-21.907-.017-43.813a31647 31647 0 0 0-.012-24.49c-.038-42.181.297-84.338 1.106-126.511h1l1 9 33-1zm-35 21v68h34v-68z"/><path fill="#6D6D6D" d="M972 418h16v13h2v-13h31v14h-29v2h29v13h-31v-11h-2v14h33v18h-48v-34h13v-2h-14z"/><path fill="#040202" d="M1004 186h49v43l-2-4-2 7h-45v-29h45v-2h-46v-7h46v-2h-45z"/><path fill="#4B96A3" d="M851 456h27v46h-22v10h-82v-10h78z"/><path fill="#FCFDFC" d="M972 471h49v11h3v-11h11l-1 32h-62z"/><path fill="#F1F1F1" d="M1013 304h27v37h70v9h-97z"/><path fill="#FD532D" d="M1055 158h24v72h-24z"/><path fill="#474747" d="M785 148h58l1 4 2-3v19h7v2h-7l.07 2.922.055 3.828.07 3.797C846 184 846 184 844 188l-1-16h-44v17c-3.285 1.095-5.737 1.1-9.187 1.063l-3.293-.028L784 190q-.042-4.72-.062-9.437l-.026-2.721-.01-2.588-.016-2.396C784 171 784 171 785 170c2.989-.458 5.99-.703 9-1l-9-1z"/><path fill="#4E97A4" d="M852 372h35l1 29c-11.687-.062-11.687-.062-15.346-.153-3.1.059-5.688.224-8.654 1.153-1.954 2.21-2.98 4.182-4.064 6.916C859 411 859 411 856.187 412.563L854 413v2c-7.12 4.556-13.657 4.983-22 4-4.982-1.595-8.611-5.098-12-9v-2l-3-1v-5h35z"/><path fill="#F95330" d="M932 286h108v15H932z"/><path fill="#070707" d="M843 124h45v66h-1l-1-12h-1v-51h-40v18c-5.626 5.626-20.294 3.335-28.124 3.558-2.306.067-4.611.145-6.917.223-8.416.261-16.567.115-24.959-.781v20h10l-1 2-9 1-1 19 12-1 1-17h1l1 17 3.732.076q6.837.142 13.675.296 2.963.066 5.925.125 4.253.088 8.504.187l2.686.05c6.25.152 6.25.152 8.478 1.266v2l-43 1-1 12h46v-11h1v11h9v3h-56l1 17 43 1v1h-44v11h46v-9h1v11h-49v-32h-14v-16h-20v-3h19v-19h-18v-4h19v-22h61z"/><path fill="#030303" d="m931 251 1 29 111 1v3c-2.81.936-4.552 1.135-7.46 1.158l-2.767.03-3.028.017-3.193.03q-5.235.046-10.47.081l-7.251.063q-9.551.082-19.102.153-9.742.077-19.485.161-19.122.162-38.244.307l-1 10-3 1-1-11-180-1v-6c34.452-.123 68.904.192 103.355.445q12.566.092 25.133.182 25.755.184 51.512.373l-.005-2.685-.004-3.533-.005-3.497c.017-3.862.155-7.68.389-11.535.07-1.263.14-2.527.21-3.828.138-.964.274-1.929.415-2.922 2-1 2-1 3-1"/><path fill="#391C18" d="M1053 138h1v14h91v1l-90 1-2 4h2v72h43v3h-44v14h-1l-.25-3.312c-.387-3.72-.387-3.72-2.812-5.625L1048 237v2c-1.916.081-3.833.14-5.75.188l-3.234.105c-3.016-.293-3.016-.293-4.797-1.78-2.986-2.036-5.14-1.943-8.735-2.025l-3.789-.107-3.945-.069-3.992-.103q-4.879-.124-9.758-.209v8h-1v-40h1v29l45-1 2-7h1l1-38h-2l-1 2v-2h-46v6h-1v-7h46v-2h-46v-7h46v-2h-46c0-6 0-6 1-7 1.873-.1 3.75-.13 5.625-.133l3.56-.006 3.815.014 3.839.006c9.418.043 18.774.368 28.161 1.119v-2h3v-7c-3.178-1.06-5.426-1.115-8.762-1.098l-3.388.01-3.537.025-3.573.014q-4.37.018-8.74.049l1-3 2.08-.06c3.098-.095 6.197-.205 9.295-.315 1.08-.03 2.16-.062 3.273-.094l3.125-.117 2.889-.095c2.527-.105 2.527-.105 4.338-2.319.46-2.203.46-2.203.625-4.625l.227-2.477L1051 143h1z"/><path fill="#FDFEFE" d="M1095 449h35v41h-35z"/><path fill="#F5F5F5" d="M932 304c26.022-.126 51.992.11 78 1v22h-37v-9h-41z"/><path fill="#1E1E1E" d="M1155 90h27l-1 5h-23v24h32v113h-1l-.031-3.287q-.146-15.36-.308-30.72-.083-7.896-.158-15.792-.072-7.625-.156-15.25-.03-2.904-.056-5.808-.037-4.078-.086-8.157l-.017-2.406c-.064-4.934-.496-9.693-1.188-14.58l-.437 3.938c-.438 3.937-.438 3.937-1.563 5.062a168 168 0 0 1-7.316.098l-2.216-.005c-2.343-.005-4.687-.018-7.03-.03l-4.756-.014q-5.841-.017-11.682-.049l-1-2-1 57h-1v-81h6z"/><path fill="#FDFDFD" d="M858 128h26v62h-16v-2h8v-5h-8v-15h-10z"/><path fill="#FEFDFC" d="M1153 253h31v43h-31z"/><path fill="#EA5738" d="M1154 420h31v41h-31z"/><path fill="#FCFBFB" d="M843 286h84v15h-84z"/><path fill="#F0F0F0" d="M931 323q7.663-.036 15.326-.055 2.609-.008 5.218-.02c2.494-.013 4.989-.018 7.483-.023l2.37-.015c1.869 0 3.736.051 5.603.113 1 1 1 1 1.114 4.051q0 2.023-.016 4.047l-.008 3.93-.028 5.034L968 356h-37z"/><path fill="#300C08" d="M1187 354h2v39l-2-4-1 2q-6.78.037-13.562.055-2.307.008-4.615.02c-2.21.013-4.419.018-6.628.023l-2.09.015c-4.877 0-4.877 0-7.105-1.113-1.285-3.441-1.133-6.928-1.125-10.562l-.008-3.442C1151 373 1151 373 1152 370h2v-12l2.814-.044q5.16-.092 10.32-.218 2.235-.051 4.47-.084c2.14-.034 4.28-.086 6.42-.142l3.903-.08L1185 357z"/><path fill="#FCC41F" d="M909 105h14v85h-14z"/><path fill="#F2F2F2" d="M843 304h84v14h-84z"/><path fill="#62491E" d="M927 286h1l1 10h2v-10h1v15h108v-12l2 1 2-4v3h66v1l-65 1 64 1v9q-12.882.034-25.764.052-5.982.007-11.962.023-5.768.016-11.535.02-2.205.003-4.41.01-3.08.01-6.157.009l-3.546.006C1043 301 1043 301 1042 300l-1 2-1.647.013q-19.83.155-39.66.326-9.59.084-19.179.158-9.249.072-18.498.156-3.534.031-7.068.056-4.938.037-9.877.086l-2.97.017-2.716.03-2.36.02c-2.23.067-2.23.067-5.025 1.138v14h-1v-13h-3v13h-1v-14h-84v9l-3 3q-.04-3.187-.062-6.375l-.036-3.586C840 303 840 303 841 301h86z"/><path fill="#414141" d="M960 88h5v159l2 1c-7.557 7.557-21.318 1.655-32 2l68 1v9h45v1h-46v-8h-70v27h-1l-1-28h-2v15h-1v-21h33z"/><path fill="#070707" d="M752 434q12.906-.048 25.813-.062l2.046-.003c29.882-.033 59.76.248 89.641.565l3.421.036q21.04.224 42.079.464v4h-34v14h24l-1 4h-22v11h19v19h-20l.035-6.746q.012-3.222.02-6.444.008-2.244.02-4.49c.013-2.147.018-4.294.023-6.441l.016-3.92c.226-2.846.226-2.846-1.114-3.959-.21-2.309-.368-4.623-.5-6.937-.106-4.696-.106-4.696-1.5-9.063l-2.953.016c-28.645.137-57.28-.142-85.922-.516l-2.78-.036Q769.172 438.239 752 438z"/><path fill="#050505" d="M841 304h1l1 14h85v-13h3v13h42v8h-1v-7l-5 1-1 3-35 1-1 31c-7.34-7.34-2.642-20.625-3-31l-159-1v-5h72z"/><path fill="#4896A2" d="M783 368h49v2h2v2l-1.723.559c-6.79 2.55-10.822 6.042-14.277 12.441-.786 3.11-.786 3.11-1.191 6.313l-.48 3.238L816 397q-6.809.037-13.617.055-2.317.008-4.636.02c-2.216.013-4.433.018-6.65.023l-2.105.015c-1.664 0-3.329-.051-4.992-.113-1-1-1-1-1.114-3.684l.016-3.539.008-3.437.028-4.402z"/><path fill="#F8F8F8" d="M992 389h43v26h-11v-10h-3v10h-30c0-13 0-13 1-26"/><path fill="#141518" d="M1091 396h4v50h38v48h-38v21h-7v-21h-16v-4h20v-41h-18v34h-2v-37h20zm4 53v41h35v-41z"/><path fill="#030303" d="M988 436h2v11h43l1 2h-10v19h11v-18h2v55c-3.362 1.12-6.061 1.209-9.605 1.316l-2.044.063q-2.173.066-4.346.124-3.127.087-6.253.19c-15.595.447-31.131.307-46.752.307v-69l4 1 1 28 48 1v-18h-33zm-16 35v32h62l1-32h-11v11h-3v-11z"/><path fill="#060606" d="m771.938 102.75 3.652-.016c4.222.33 7.056.996 10.176 3.922l1.484 1.844 1.516 1.844c3.438 4.613 2.958 10.15 2.234 15.656-2.022 4.414-4.862 7.172-8.75 10-6.61 2.034-13.905 1.806-20.25-1-4.13-3.794-6.7-7.191-7.309-12.89-.39-10.188-.39-10.188 3.059-14.297 4.378-4.368 8.05-5.09 14.188-5.063"/><path fill="#FBC621" d="M842.375 371.875 852 372v30c-23.69.125-47.324-.177-71-1v-1h35v-12c1.761-5.387 5.706-10.298 10-14 5.322-2.528 10.618-2.23 16.375-2.125"/><path fill="#FB542E" d="M1184 220h1v106h-31v-30h30z"/><path fill="#FDFDFD" d="M973 435h14v16h33v16h-47z"/><path fill="#181817" d="M991 387h46c.636 15.026 1.12 29.963 1 45h18v3h-18v12h10v3h-10v53h-1v-53h-2v18h-11v-19l9-1-12-1v-12h1l1-17h11v-2h-11v-10l-2-1h3v10h11v-27h-44z"/><path fill="#53909B" d="M1154 326h31v30h-31z"/><path fill="#EDEDED" d="M972 329h39v21h-23v6h-16z"/><path fill="#FDC522" d="m1104.313 170.813 3.11.04q3.79.054 7.577.147.037 6.168.055 12.335.008 2.1.02 4.2.017 3.011.023 6.024l.016 3.665C1115 200 1115 200 1114 201c-2.867.155-5.694.232-8.562.25-1.181.03-1.181.03-2.385.063-5.391.035-10.387-.398-15.053-3.313-3.134-4.318-3.362-8.007-3.25-13.25.015-1.222.03-2.444.047-3.703C1085 178 1085 178 1086 176h2v-2c4.68-4.211 10.416-3.335 16.313-3.187"/><path fill="#F8F8F8" d="M800 148h43v19h-43z"/><path fill="#CEAD4B" d="M972 471h1v24l5.098-.219c14.977-.614 29.913-.922 44.902-.781l-.035-2.238c-.062-6.998.302-13.802 1.035-20.762h11l-1 32h-62z"/><path fill="#383838" d="M969.563 318.938 972 319l1 7 38 1v1c-13.025 1.059-25.932 1.078-39 1v27h2v2h15v3h48v1h-50v-3h-14v27l-5 1v44h-1v-72h-35v162h-1V358c3.302-1.651 6.989-1.388 10.625-1.562l2.313-.131c8.018-.41 16.036-.346 24.062-.307q-.178-6.726-.372-13.452-.066-2.288-.125-4.574-.088-3.293-.187-6.583l-.05-2.059c-.102-3.26-.444-6.183-1.266-9.332 1-1 1-1 3.563-1.062"/><path fill="#F5F5F5" d="M798 209h45v17h-45z"/><path fill="#FDFDFD" d="M799 172h44v17h-44z"/><path fill="#191212" d="M1041 293h1l1 7h69l-1 4h-68v34h-2v2h68v1h-69v-37h-27c.08 8.796.08 8.796.18 17.591l.015 3.307.032 3.396C1013 331 1013 331 1011 333v-4h-16v-1l15-1v-22l-6.469.035c-23.192.095-46.35-.349-69.531-1.035l1-2h106z"/><path fill="#1C1A1B" d="M845 127h1v18h9v-17h2v40h10c.08 3.605.14 7.207.188 10.813l.076 3.103.029 2.979.048 2.745C867 190 867 190 865.712 191.776c-2.679 1.915-5.499 1.92-8.712 2.224l-1 12h-1c-1.4-11.629-1.097-23.31-1-35h-8v-1h7v-2h-7l-1-16-1 15h-1v-19h-11v-1l2.371-.184 3.067-.254c1.009-.08 2.018-.162 3.058-.246 2.44-.048 2.44-.048 3.504-1.316.156-1.34.25-2.688.316-4.035l.127-2.451.12-2.577.13-2.587q.159-3.175.307-6.35"/><path fill="#FAC72A" d="M1155 464h30v23h-30z"/><path fill="#2A2A2A" d="M843 124h45v66h-1l-1-12h-1v-51h-40v18c-5.626 5.626-20.294 3.335-28.124 3.558-2.306.067-4.611.145-6.917.223-8.416.261-16.567.115-24.959-.781v20h10l-1 2-9 1-1 19h-3v-19h-18v-4h19v-22h61z"/><path fill="#4A95A1" d="M893 115h13v51h-13z"/><path fill="#FAFAF9" d="M932 286h42v15h-42z"/><path fill="#F6F6F6" d="M1153 125h33v19h-33z"/><path fill="#171416" d="M747 279c34.452-.123 68.904.192 103.355.445q12.566.092 25.133.182 25.755.184 51.512.373v1l-2.979.018q-13.883.086-27.767.218c-4.758.044-9.517.084-14.275.11q-6.886.04-13.772.117a880 880 0 0 1-5.26.035c-2.451.01-4.903.037-7.354.07l-2.206-.005c-3.814-.066-3.814-.066-6.842 1.94-1.974 1.913-2.915 1.868-5.626 1.858l-2.511.012-2.745-.032h-2.898c-3.165-.001-6.33-.025-9.495-.048q-3.29-.009-6.58-.013c-5.775-.011-11.55-.04-17.325-.074-5.892-.03-11.784-.044-17.676-.06q-17.345-.05-34.689-.146z"/><path fill="#FEFDFB" d="M1155 440h30v20h-30z"/><path fill="#FCC720" d="M1182 94v24h8v1h-32V95l11.438-.5 3.61-.158 2.823-.123 2.904-.127C1181 94 1181 94 1182 94"/><path fill="#83B8DE" d="M792 503h64v9h-64z"/><path fill="#F1F1F1" d="M1028 107h20v27h-37v-1l21-1v-1l-7-1 2-1-.016-1.804q-.029-4.035-.046-8.071l-.026-2.84-.01-2.715-.016-2.507C1027 109 1027 109 1028 107"/><path fill="#F05433" d="M1154 371h31v18h-31z"/><path fill="#070505" d="m1060.836 152.876 2.54.01h2.66c2.916 0 5.833.009 8.75.016l6.048.005q7.978.006 15.955.024 8.134.014 16.268.02 15.97.016 31.943.049v5h-28v88h-1v-88h-63c1.455-5.82 2.137-5.114 7.836-5.124"/><path fill="#080808" d="M823 111c3.865 2.22 6.309 4.866 8 9 .162 4.968-.923 9.043-4 13-3.02 3.193-4.525 3.94-8.937 4.5-4.234-.216-6.772-1.822-10.063-4.5l-1.652-1.258c-1.986-2.567-1.676-4.609-1.598-7.804.015-1.064.03-2.127.047-3.223C805 118 805 118 806 116h2l1-3c4.29-2.847 9.043-2.652 14-2"/><path fill="#030303" d="M1048 95h6v8h72v4h-73v20l-3-1-1 2c-1.112-4.438-1.115-8.77-1.062-13.312L1048 107h-20v-4h20z"/><path fill="#FBFBFC" d="M1154 399h31v17h-31z"/><path fill="#FCFCFC" d="M802 304h38v13h-38z"/><path fill="#4A3F1F" d="M1190 416h1v85h-6v-10h-30l-1-4-2-1c-.114-15.038-.013-29.992 1-45h1v20c4.049.81 7.457 1.172 11.543 1.281l3.752.114 7.82.21 3.74.114 3.427.092C1187 463 1187 463 1189 464zm-35 48v23h30v-23z"/><path fill="#FCFCFC" d="M799 194h44v11h-44z"/><path fill="#FA522F" d="M801 287a6452 6452 0 0 1 15.643-.055q2.66-.008 5.323-.02c2.549-.013 5.098-.018 7.647-.023l2.406-.015c3.258 0 5.868.075 8.981 1.113v11h-40z"/><path fill="#070506" d="M988 436h2v11h43l1 2h-10v19h11v-18h2v53h-3c-.199-21.96-.199-21.96 1-32h-11v11h-3v-11h-48v-1h47l1-20h-33z"/><path fill="#F6CD32" d="M1044 293h65v7h-65z"/><path fill="#030303" d="M961 89h3v150h-2l-1 2z"/><path fill="#0C0A0B" d="M818 403h33v13c-6.535 3.921-11.54 3.758-19 3-5.54-1.61-10.004-6.164-13-11z"/><path fill="#080201" d="M1189 153q.07 18.191.104 36.382.014 8.449.047 16.898.032 8.17.039 16.34.004 3.1.021 6.2c.059 11.58-.241 22.748-2.211 34.18h-1c-.873-5.239-1.134-10.253-1.098-15.559l.005-2.391c.005-2.496.018-4.992.03-7.488q.008-2.553.014-5.107c.01-4.152.03-8.303.049-12.455h-32v-3h33v-63c2-1 2-1 3-1"/><path fill="#3E3C3A" d="M867 168h1v15h8v5h-8v2h16v1l-15 1c4.891.29 4.891.29 9.783.568 5.106.32 5.106.32 6.217 1.432v12h-28v-13l3.375-.375c3.656-.272 3.656-.272 5.625-2.625.37-2.325.37-2.325.414-5.008l.117-2.988.094-3.129.117-3.152q.142-3.86.258-7.723"/><path fill="#D0C0BD" d="m1004.867 164.88 2.47.006h2.79l3.033.016 3.09.005c3.27.005 6.542.018 9.812.03q3.318.008 6.635.014 8.152.017 16.303.049v3h-45l-1 6h46v2h-46v7h46v2h-46v7h46v2h-46v7h-1c-.815-9.178-1.111-17.818 0-27l-2-1c2.167-7.946 2.167-7.946 4.867-8.12"/><path fill="#E15B3D" d="M1055 158h24v72h-24zm2 2-1 68h21v-2h-2l1-2c.092-2.032.118-4.068.114-6.102v-3.882l-.016-4.211-.005-4.296q-.006-5.658-.024-11.314-.014-5.772-.02-11.543-.016-11.325-.049-22.652z"/><path fill="#F1F1F1" d="M991 418h30v14h-30z"/><path fill="#5F9DA7" d="M881 456h23v1h-22v11h19v19h-20z"/><path fill="#4B4B49" d="M961 434h7v73l32.813-.875 10.358-.261q4.05-.114 8.099-.231l2.127-.05c2.068-.048 4.136-.109 6.204-.172l3.533-.095c3.063-.115 3.063-.115 5.866-2.316 2.918-.195 2.918-.195 6.188-.125l3.292.055 2.52.07v4h-12v18H932v-1q14.139-.2 28.277-.391 6.57-.09 13.14-.182c20.863-.294 41.718-.512 62.583-.427l-2-2v-13h-67v-73h-6z"/><path fill="#F5F5F5" d="M799 229h44v9h-44z"/><path fill="#E3BD4A" d="M909 105h14v85h-14zm2 3v80h10v-80z"/><path fill="#FDFDFD" d="M973 389h15v25h-15z"/><path fill="#D05B43" d="M974 286h66v15h-66zm2 2v10c13.506 1.108 26.957 1.117 40.5 1.063q3.287-.008 6.574-.014 7.963-.017 15.926-.049v-9l-3.732-.076q-6.837-.142-13.675-.296-2.963-.065-5.925-.125-4.253-.088-8.504-.187l-2.686-.05c-6.25-.152-6.25-.152-8.478-1.266a75 75 0 0 0-4.57-.098l-2.715.01-2.84.026-2.863.013q-3.507.02-7.012.049"/><path fill="#F6F6F6" d="M991 435h30v12h-30z"/><path fill="#D9B4AB" d="M978 151h1v95l22-1 1-42h1v30h45v1h-45v9h46v3c-28.005.71-55.985 1.161-84 1v-1h13z"/><path fill="#F6BD24" d="M1023 492h10v9h-59v-5c16.34-.64 32.647-1.171 49-1z"/><path fill="#FBC420" d="M856 486h22v16h-22z"/><path fill="#F1F6F7" d="M1075 449h10v35h-10z"/><path fill="#020202" d="M1004 235h40v3l4 1v-2h5l-1 8-3 1v-3h-45z"/><path fill="#A5C5DF" d="M1095 449h35v41h-35zm1 1v33h33v-33z"/><path fill="#AB5340" d="M1152 149h34v68h-34zm1 1 1 65h30l1-65z"/><path fill="#F7512E" d="m892 164 1 2h13v24h-14z"/><path fill="#090404" d="M1188 394h1c.83 9.743 1.136 19.37 1.098 29.148l-.005 4.178q-.006 5.42-.024 10.84-.014 5.56-.02 11.123-.016 10.856-.049 21.711l-3 1v-9c-.832.01-1.665.02-2.523.032q-4.637.05-9.275.078c-1.995.015-3.99.04-5.985.066l-3.799.02-3.507.031C1159 463 1159 463 1156 461l29-1-.035-8.773q-.012-4.305-.02-8.61-.008-2.943-.02-5.888c-.055-12.616.207-25.14 1.075-37.729h2z"/><path fill="#36393D" d="m1093 488 1 2h36v1l-26 1 29 1v1h-38v21h-7v-21h-16v-4h21z"/><path fill="#CCAB3D" d="M1043 304h67v34h-67zm2 1v31h63v-31z"/><path fill="#343434" d="M840 435h75v4h-34v14h24v3c-3.792.029-7.583.047-11.375.063l-3.273.025-3.125.01-2.889.016C882 456 882 456 880 455c-.379-3.09-.379-3.09-.562-6.937-.064-4.697-.064-4.697-1.438-9.063h-46v-1l44-1-36-1z"/><path fill="#F3DED4" d="M1079 158h36l-1 2-33-1v20l4-1 .148 2.957.227 3.856.21 3.832c.176 3.483.176 3.483 2.415 6.355v3l2.313.438C1093 199 1093 199 1096 200c1.481.08 2.966.108 4.45.098l2.568-.01 2.67-.025 2.705-.014q3.303-.018 6.607-.049v2c-3.708.117-7.416.187-11.125.25l-3.172.102c-6.214.078-10.041-.063-14.703-4.352-1.375-2.75-1.375-2.75-2-5h-2l1 7h-2v25h7v1l8 1v1h-16l-1 2z"/><path fill="#F7F7F5" d="M851 456h26v12h-26z"/><path fill="#493634" d="M1189 328h1v80h-1l-1-9h-2v61h-1v-40h-31l3-2-3-2h31v-17h-31v-1l28-1v-2h2v-2h2l1-16h1z"/><path fill="#ECF2F2" d="M1154 346q6.381-.037 12.762-.055 2.173-.008 4.345-.02c2.078-.013 4.155-.018 6.233-.023l3.793-.016C1184 346 1184 346 1185 347v9h-31z"/><path fill="#4B838B" d="M783 368h49v1l-3.027.184-3.91.253-3.903.247c-3.02-.035-3.02-.035-4.16 1.316a158 158 0 0 1-7.098.098l-2.148-.005c-2.272-.005-4.544-.018-6.817-.03q-2.306-.009-4.61-.014c-3.776-.01-7.552-.03-11.327-.049v24h30v-12c1.574-3.36 1.574-3.36 3.688-5.75.684-.82 1.368-1.64 2.074-2.484C823 373 823 373 825.77 372.734L828 373v-3h6v2l-1.723.559c-6.79 2.55-10.822 6.042-14.277 12.441-.786 3.11-.786 3.11-1.191 6.313l-.48 3.238L816 397q-6.809.037-13.617.055-2.317.008-4.636.02c-2.216.013-4.433.018-6.65.023l-2.105.015c-1.664 0-3.329-.051-4.992-.113-1-1-1-1-1.114-3.684l.016-3.539.008-3.437.028-4.402z"/><path fill="#383838" d="M974 386h64v27h-1v-26l-2 2c-1.873.24-1.873.24-4.174.227h-2.609l-2.819-.032-2.883-.008a1962 1962 0 0 1-9.14-.062q-3.094-.016-6.187-.027-7.595-.035-15.188-.098l.018 2.587c.03 7.896-.327 15.55-1.018 23.413h-19v-27h2zm-1 3v25h15v-25z"/><path fill="#030303" d="m1009.625 166.867 3.56-.006 3.815.014 3.839.006c9.418.043 18.774.368 28.161 1.119l-1 3 2 1v2h-47c0-7.126 0-7.126 6.625-7.133"/><path fill="#C8614B" d="M793 456h58c1.15 13.794 1.15 13.794 1.098 20.61l-.003 1.988c-.006 2.384-.02 4.768-.033 7.152L852 502h-59zm1 1v43h56v-43z"/><path fill="#868585" d="M846 127h39v63h-1v-62h-26v40h-1v-40h-2v17h-9z"/><path fill="#FDFDFD" d="M1153 150h32v9h-32z"/><path fill="#0F0802" d="M970 489c2 4 2 4 2 14h65c-1 2-1 2-3 3-2.166.157-4.337.25-6.508.316l-2.018.064q-3.3.097-6.599.183c-.748.02-1.497.042-2.268.064-16.203.455-32.4.48-48.607.373a788 788 0 0 1-.125-7.312l-.05-2.092c-.037-3.767.031-5.38 2.175-8.596"/><path fill="#F3F2F2" d="M1154 359h31v9h-31z"/><path fill="#BC664B" d="M1184 220h1v106h-31v-30h30zm-28 78v27h27v-27z"/><path fill="#292829" d="M841 301h86l-1 3h-83v9l-3 3q-.04-3.187-.062-6.375l-.036-3.586C840 303 840 303 841 301"/><path fill="#F3F5F6" d="M905 102h1v13h-13l.016 4.085c.175 49.329.175 49.329-1.016 70.915h-4v-66h1l1 36 1-48 1 2h13z"/><path fill="#333233" d="M759 451h16v2h19v2c-3.25 1.625-6.807 1.143-10.375 1.125l-2.27.012c-6.542-.011-12.774-.589-19.355-1.137v49h-3z"/><path fill="#EAEAEA" d="M887 209h19v14q-4.47.04-8.937.063l-2.577.025-2.45.01-2.27.016C888 223 888 223 887 222c-.144-4.335-.042-8.662 0-13"/><path fill="#0F0F0F" d="M1021 406h2v10h11v2h-11v18l-2-1c-2.177-.155-4.358-.25-6.54-.316l-3.944-.127-4.141-.12-4.164-.13q-5.106-.16-10.211-.307v-2h29v-14h-31v13h-2v-16h33z"/><path fill="#040303" d="M1004 177q9.771-.037 19.543-.055 3.327-.008 6.653-.02c3.182-.013 6.364-.018 9.546-.023l3.018-.015h2.79l2.463-.007C1050 177 1050 177 1052 178v7h-2v-2l-2.953.035c-14.364.11-28.697-.458-43.047-1.035z"/><path fill="#AD5B4A" d="M800 285h127v1h-84v14h-43zm1 2v12h40v-11c-3.822-1.274-7.407-1.124-11.387-1.098l-2.476.005c-2.608.005-5.216.018-7.824.03q-2.654.008-5.307.014-6.502.017-13.006.049"/><path fill="#E6E6E6" d="M867 209h18v14h-18z"/><path fill="#7E98A2" d="M774 502h82v1h-64v9h-18z"/><path fill="#0A0A0A" d="M748 279q7.416-.037 14.832-.055 2.516-.008 5.033-.02c8.78-.045 17.41-.053 26.135 1.075v1l6 1v2h-52z"/><path fill="#E6CC4D" d="M842.375 371.875 852 372v30c-23.69.125-47.324-.177-71-1v-1h35v-12c1.761-5.387 5.706-10.298 10-14 5.322-2.528 10.618-2.23 16.375-2.125m-21.574 9.352c-2.794 4.302-2.943 8.502-2.926 13.523l-.008 2.297c.012 2.033.012 2.033 1.133 3.953h31v-27c-16.383-1.514-16.383-1.514-29.2 7.227"/><path fill="#EEE" d="M887 194h19v12h-19z"/><path fill="#EBEBEB" d="M784 171h12v19h-12z"/><path fill="#F4F4F4" d="M785 148h12v19h-12z"/><path fill="#2F1816" d="M794 453h84v3h-86l2-1z"/><path fill="#D2B95C" d="M1152 220h32v33h-31v43h-1zm1 1 1 30h29v-30z"/><path fill="#E4C451" d="M1182 94v24h8v1h-32V95l11.438-.5 3.61-.158 2.823-.123 2.904-.127C1181 94 1181 94 1182 94m-21 3v20h18V97z"/><path fill="#97B9D3" d="M794 503h62v9h-63v-2l61-1-6-1v-3l-54-1z"/><path fill="#1B2223" d="m824 363 1 3h-44l2 2c.319 2.797.319 2.797.414 6.32l.108 3.43.103 4.375L784 396l32 1v3h-36v-35h44z"/><path fill="#515050" d="M1053 138h1v14h91v1l-90 1-2 5-1.634-.494c-2.8-.599-5.361-.618-8.225-.604l-3.38.01-3.511.025-3.559.014q-4.346.018-8.691.049l1-3 2.08-.06c3.098-.095 6.197-.205 9.295-.315 1.08-.03 2.16-.062 3.273-.094l3.125-.117 2.889-.095c2.527-.105 2.527-.105 4.338-2.319.46-2.203.46-2.203.625-4.625l.227-2.477L1051 143h1z"/><path fill="#302E30" d="M1149 119h5l1 3-1 1 32 1v1h-33v19h32v1h-33l-1-2-1 57h-1z"/><path fill="#051116" d="m859 363 2 1-3 5h32v32l-3-1v-28h-35l-1-3 2.313-.187c2.918-.582 2.918-.582 4.5-3.375z"/><path fill="#FCF4CF" d="M973 471h1l1 16h1v5l3.824-.2q7.005-.362 14.01-.71 3.036-.152 6.07-.31 4.357-.227 8.713-.44c.909-.05 1.817-.098 2.753-.148l2.547-.122 2.248-.114C1018 490 1018 490 1020 491l-.062-2.812C1020 485 1020 485 1021 482h2v12c-16.68.894-33.298 1.115-50 1z"/><path fill="#312A29" d="M1052 159h1v27h-2l-1 2v-2h-46v6h-1v-7h46l1-2v2h2v-7l-48-1v5h28v1h-29v-7h46l1-4h-10v-1l8-1 1-4h3z"/><path fill="#221300" d="M1111 300v4h-68l-1-3z"/><path fill="#371A05" d="M908 106h1v84h14v1h-15l-1 2c-1 1-1 1-2.766 1.114l-2.27-.016-2.45-.01-2.577-.025-2.587-.014q-3.175-.02-6.35-.049v-1l6-1-6-1v-1h18v-26h2z"/><path fill="#F0F0F0" d="M868 194h17v12h-17z"/><path fill="#D7D8D8" d="M1123 107h2v45h-69v-1h66c-.04-13.732-.04-13.732-.09-27.464l-.008-5.153-.015-2.717v-2.583l-.007-2.248C1122 109 1122 109 1123 107"/><path fill="#EBEBEB" d="M1024 450h11v18h-11z"/><path fill="#5F8D8E" d="M877 456h1v30h-22v16h-4v-33h24v11h-1v-9h-21v14h23z"/><path fill="#D67963" d="M871 98h2v20h-17c2.075-5.187 2.9-5.778 7-9a150 150 0 0 0 4-6c2.125-2.875 2.125-2.875 4-5"/><path fill="#252423" d="M1190 416h1v84h-5c-.417-12.072.843-23.998 2-36h1z"/><path fill="#270900" d="M1186 160h1q.044 13.563.063 27.125l.002 2.01c.023 19.641-.083 39.245-1.065 58.865h-1v-28h-32v-3h33z"/><path fill="#0A0A0A" d="M988 436h2v11h43l1 2h-10v17h-2v-16h-34z"/><path fill="#08171D" d="M879 440h1v15l2 1-2 56h-1c-.977-19.014-1.11-37.968-1-57h-28v-1h28v-13z"/><path fill="#322D1E" d="M1155 90h27l-1 5h-23c.119 6.821.119 6.821.27 13.642l.023 2.569.048 2.634L1158 116l-3 2z"/><path fill="#050505" d="M845 149h1v19h7v2h-7l.07 2.922.055 3.828.07 3.797C846 184 846 184 844 188v-17l-5.879.035-7.683.028-3.87.025-3.76.01-3.443.016c-3.517-.12-6.893-.556-10.365-1.114v-1c6.939-1.227 13.906-1.338 20.938-1.562l3.806-.131q4.627-.159 9.256-.307c.09-1.572.09-1.572.184-3.176l.254-4.137.119-2.091c.192-3.068.466-5.666 1.443-8.596"/><path fill="#020202" d="m1150 444 1 2h2a3365.336 3365.336 0 0 0-.11 16.815q-.015 2.859-.04 5.718c-.025 2.743-.036 5.486-.045 8.229l-.032 2.573c0 4.4.305 7.62 2.227 11.665-.023 2.457-.023 2.457-.375 4.813l-.336 2.394L1154 500h-4z"/><path fill="#231E1F" d="M935 302q14.199-.07 28.399-.104 6.592-.014 13.186-.047 6.36-.032 12.721-.039 2.429-.004 4.858-.021a999 999 0 0 1 6.794-.016l3.91-.014C1008 302 1008 302 1011 304c.34 2.247.34 2.247.293 5.008l-.03 2.988c-.024 1.033-.05 2.065-.076 3.129l-.04 3.152A758 758 0 0 1 1011 326h-1v-21l-6.469.035c-23.192.095-46.35-.349-69.531-1.035z"/><path fill="#371F1E" d="M747 279h1v5q10.449-.18 20.898-.372 3.537-.065 7.075-.125c13.314-.23 26.61-.573 39.913-1.17 7.212-.316 14.395-.46 21.614-.396l3.14.014q3.68.018 7.36.049c-1.567 1.86-2.47 2.897-4.9 3.37l-2.181-.01-2.511.013-2.745-.032h-2.898c-3.165-.001-6.33-.025-9.495-.048q-3.29-.009-6.58-.013c-5.775-.011-11.55-.04-17.325-.074-5.892-.03-11.784-.044-17.676-.06q-17.345-.05-34.689-.146z"/><path fill="#050304" d="M886 128h1l1 62 17 2v1l-17 1-1 12h-2l-1-12-17-1c2.846-2.846 5.804-2.456 9.625-2.625l2.14-.117c1.745-.094 3.49-.177 5.235-.258a309 309 0 0 0 1.316-24.11l.063-3.311q.096-5.164.183-10.329l.131-7.062q.16-8.595.307-17.188"/><path fill="#698C92" d="M893 115h13v1h-12v47h10v-43h1c1.37 15.308 1.09 30.648 1 46h-13z"/><path fill="#FDFDFD" d="M973 419h14v12h-14z"/><path fill="#DBBD46" d="M856 486h22v16h-22zm2 3v11h17v-11z"/><path fill="#040404" d="m801.03 189.87 2.588-.009 2.816.006 2.873-.003q3.015 0 6.03.006c3.084.005 6.167 0 9.25-.007q2.924 0 5.847.004l2.809-.006 2.599.01 2.292.002C840 190 840 190 842 191v2l-43 1-1 13h-2a1890 1890 0 0 1-.062-7.938l-.026-2.287c-.009-1.925.036-3.85.088-5.775 1.528-1.528 2.9-1.127 5.03-1.13"/><path fill="#5D5D5D" d="M1053 95h1v8h72v4h-72v-1h71v-2q-14.03.126-28.06.288-6.514.076-13.027.134-6.284.056-12.566.136-2.4.028-4.801.045c-2.237.017-4.473.046-6.71.078l-3.862.04c-3.091-.03-3.091-.03-4.974 2.279v-5h2z"/><path fill="#FCC019" d="M1024 495h4v3l4-2v4h-56l-1-3q6.83-.037 13.66-.055 2.319-.008 4.637-.02c2.235-.013 4.469-.018 6.703-.023l2.062-.015c4.741 0 9.252.473 13.938 1.113 1.499.058 3 .09 4.5.063l3.5-.063z"/><path fill="#EBEBEB" d="M846 148h8v20h-8z"/><path fill="#E4E4E1" d="M784 193h12v13h-12z"/><path fill="#F5E1DA" d="M1155 440h30v2h-25v5h-2v10h2v2h25v1h-30z"/><path fill="#EEE" d="M1024 418h11v14h-11z"/><path fill="#668263" d="M852 372h35v1l-32 1-1 31h-2v11h-1v-13h-33l1 5-2-1v-5h35z"/><path fill="#040304" d="M1074 153h40l2 4q-8.249.075-16.498.11-2.806.016-5.613.04c-2.688.025-5.376.036-8.065.045l-2.538.032c-5.944 0-5.944 0-9.286-2.227z"/><path fill="#D8D5CB" d="M857 171h8v19h-8z"/><path fill="#E8E7E7" d="M846 171h8v19h-8z"/><path fill="#A0B1BE" d="M1095 449h35v1h-34v34h32v1l-30 1-1 3h32v-5h1v6h-35z"/><path fill="#25110C" d="m1056.858 152.886 2.396.016 2.588.01 2.72.025 2.733.014q3.352.018 6.705.049v2c4.146 1.148 8.207 1.226 12.484 1.316l2.472.063q3.897.097 7.794.183l5.293.131q6.478.16 12.957.307v1h-62c1.238-4.953 1.238-4.953 3.858-5.114"/><path fill="#8EADC1" d="M1085 405h4l-1 3-2-1v36h4v-33h2v36h-20v-1h13z"/><path fill="#484747" d="M927 286h1l1 10h2v-10h1v15h42v1l-3.532.076q-6.483.142-12.966.296-2.806.065-5.613.125-4.033.088-8.065.187l-2.538.05c-3.323.085-6.114.209-9.286 1.266v14h-1v-13h-3v13h-1l-.184-2.992-.254-3.883c-.08-1.276-.162-2.552-.246-3.867-.108-3.141-.108-3.141-1.316-5.258h2z"/><path fill="#020202" d="M1093 446h39v27h-1v-24h-37z"/><path fill="#1A1A1A" d="M927 432h1l1 90c-2.85.95-4.442 1.097-7.38 1.022l-2.668-.061-2.87-.082-2.947-.072q-4.661-.116-9.322-.245l-6.319-.158Q889.746 522.21 882 522v-1h45z"/><path fill="#454545" d="M752 434h64v1l-40 1 16 1v1h-40z"/><path fill="#0C0104" d="M1045 290h68l-1 10-3 1v-9h-65z"/><path fill="#EFEFEF" d="M846 128h8v17h-8z"/><path fill="#262525" d="M1021 450h1v16h2v2l3.813-.187c2.144-.106 2.144-.106 4.187.187l3 3h-11v11h-3v-11h-48v-1h47z"/><path fill="#030303" d="m969.285 246.902 2.778.036 2.785.027L977 247l1 2 25 1v1h-70c2.863-2.863 4.937-2.3 8.941-2.379l2.07-.051c2.184-.054 4.367-.094 6.552-.132a1712 1712 0 0 0 6.562-.143c1.982-.047 3.965-.084 5.948-.121 3.114-.185 3.306-1.147 6.212-1.272"/><path fill="#F2F2F2" d="M1024 435h11v12h-11z"/><path fill="#DDF3F5" d="M905 102h1v13h-13v49h-3l1-52 1 2h13z"/><path fill="#090A08" d="m907 103 16 1v1l-14 1-1 58h-2q-.038-10.138-.055-20.276-.008-3.442-.02-6.884c-.013-3.316-.018-6.633-.023-9.95l-.015-3.06c0-6.996.458-13.864 1.113-20.83"/><path fill="#040505" d="M1048 95h5v7h-2l-1 5h-22v-4h20z"/><path fill="#E1C1B6" d="M998 286h42v3h-43z"/><path fill="#FCFCFC" d="M846 210h8v16h-8z"/><path fill="#101010" d="M783 145h60v1l-35 1v1c-7.871 1.007-15.108.836-23 0l-1 18h-1z"/><path fill="#A5BED1" d="M1071 445h1v39l-6 1 1 3h3l2-2 3 1 15 1v-35h1v36l-27 1v-7h7z"/><path fill="#161B21" d="M1091 396h4v49h-3z"/><path fill="#11191E" d="M1093 447c2 2 2 2 2.227 5.99q-.001 2.588-.032 5.174l-.008 2.75a1782 1782 0 0 1-.062 8.711q-.016 2.949-.027 5.898-.035 7.239-.098 14.477h-3q-.037-8.704-.055-17.407-.008-2.962-.02-5.925-.017-4.253-.023-8.504l-.015-2.686c0-6.25 0-6.25 1.113-8.478"/><path fill="#F0ECEB" d="M1024 471h11v11h-11z"/><path fill="#D7694F" d="m892 164 1 2h13v24h-14zm2 3v21h10c.958-2.875 1.067-4.29.879-7.23l-.147-2.432-.17-2.525-.158-2.561q-.196-3.126-.404-6.252z"/><path fill="#FADED3" d="M776 456h17v46h-2v-4h-7v-1h7v-40h-15z"/><path fill="#DDD" d="M857 209h8v14h-8z"/><path fill="#343434" d="M906 194c3 3 3 3 3.34 6.003l-.047 3.634-.023 3.545-.082 4.506L909 226h-42v-1h41v-2h-2v-14h2v-3h-2z"/><path fill="#F3EAE6" d="M873 98h1c.256 3.228.475 6.457.688 9.688l.22 2.763.166 2.686.175 2.46C875 118 875 118 872 123h15v1h-43v-1l20-1c-2.565-2.565-4.477-2.54-8-3v-1h17z"/><path fill="#E25C3C" d="M1023 482h11v10h-11z"/><path fill="#9B9797" d="M1003 165h46v3c-15.68.207-31.334-.421-47-1z"/><path fill="#FBE2D9" d="M1153 150h3v2l-1 1 1 3h28l1 3h-32z"/><path fill="#1E1E1E" d="M868 206h40v3h-21l-1 14h-1v-14c-3.686-.922-6.973-1.298-10.75-1.562l-3.547-.254L868 207z"/><path fill="#0B0A0A" d="M865 170h2c.087 3.27.14 6.541.188 9.813l.076 2.814.029 2.705.048 2.491c-.427 2.724-1.133 3.564-3.341 5.177-3.687.688-3.687.688-7 1l-1 12h-1c-.858-10.164-1.034-19.824 0-30h1v14h9z"/><path fill="#EDDACB" d="M879 178h3v4h2v8h-16v-2h8v-5h-8v-1l1.898-.113 2.477-.2 2.46-.175c2.544-.342 2.544-.342 4.165-3.512"/><path fill="#31211E" d="M984 151h43l-2 1v2l2 1c-4.841 2.558-9.365 2.168-14.676 1.977l-2.803-.076c-2.945-.082-5.89-.179-8.833-.276q-3.002-.088-6.002-.172-7.344-.212-14.686-.453v-1l3.748-.076q6.857-.142 13.714-.296 2.973-.066 5.945-.125 4.264-.088 8.527-.187l2.702-.05c4.003.297 4.003.297 7.364-1.266l-38-1z"/><path fill="#3C3C3C" d="M854 194h3v12h8v1l-2.875.438c-3.018.391-3.018.391-5.125 1.562l.105 2.703.082 3.547.106 3.516C857 222 857 222 854 226v-16h-8v16h-1v-17h9z"/><path fill="#EDC65C" d="M1104.313 170.813 1115 171v29h-1v-28c-13.25-.126-13.25-.126-25 5-1.128 2.615-1.128 2.615-1 5h-2l1 12c-2-2-2-2-2.23-5.187l.043-3.813.019-3.812C1085 178 1085 178 1086 176h2v-2c4.679-4.21 10.421-3.333 16.313-3.187"/><path fill="#A19755" d="m826 374 4 1-2.152 1.758-2.785 2.367-2.778 2.32C817.305 387.012 819 393.657 819 401h-38v-1h35v-12c1.845-5.642 6.021-9.705 10-14"/><path fill="#4C98A5" d="M776 504h11l-1 3h-2v2h8v3h-16z"/><path fill="#0A0A0A" d="M885.051 434.886q2.024 0 4.047.016l2.148.005c2.272.005 4.544.018 6.817.03q2.306.008 4.61.014 5.664.017 11.327.049v3q-6.567.075-13.135.11-2.235.015-4.47.04c-2.14.025-4.279.036-6.418.045l-3.904.032C883 438 883 438 881 436c1-1 1-1 4.051-1.114"/><path fill="#EBECEA" d="M857 194h8v12h-8z"/><path fill="#F4F1DD" d="M846 194h8v12h-8z"/><path fill="#0D0B0B" d="M1051 186h2v13l-4-1-1-2h3v-2h-2v-2h-44v-1l42-1-2-3 5 1z"/><path fill="#131D20" d="m859 363 2 1-3 5h32c-3 3-3 3-6.553 3.34q-2.199-.001-4.396-.047l-2.341-.013a853 853 0 0 1-7.398-.092q-2.508-.024-5.017-.042-6.148-.051-12.295-.146l-1-3 2.313-.187c2.918-.582 2.918-.582 4.5-3.375z"/><path fill="#120C06" d="M1156 95h1l1 24h21v1h-21v2h26v1h-32l3-5c.495-2.694.495-2.694.512-5.52l.107-3.095.069-3.198.103-3.255q.122-3.966.209-7.932"/><path d="M988 415h31l1 2-29 1-1 13h-2z"/><path fill="#020202" d="M886 211h1l1 11 20 1v2h-39v-2h17z"/><path fill="#040404" d="M1090 495h4v20h-5q-.042-4.72-.062-9.437l-.026-2.721-.01-2.588-.016-2.396C1089 496 1089 496 1090 495"/><path fill="#262626" d="M970 424h1v8h15v2h-13v33h-1l-1-28-3-1z"/><path fill="#F14E2C" d="M869 103h2v13h-12l1-3 2-1c1.134-2.017 1.134-2.017 2-4h4z"/><path fill="#F5C22E" d="M1097 172h17v29l-8.5.188-2.627.082c-5.614.06-9.823-.74-14.873-3.27-.717-2.109-.717-2.109-1-4 2.625.975 4.865 1.904 7.156 3.531 3.76 1.942 6.988 2.025 11.157 2.156L1113 200l-1-27h-15z"/><path fill="#F0EAC9" d="M856 502h22v19h-1v-16h-13v3h-2v-3h-5z"/><path fill="#82B4D1" d="m792 503 56 1v1l-1.77.025q-9.101.13-18.2.292-3.4.058-6.799.105c-3.251.045-6.503.103-9.754.164l-3.085.035-2.85.06-2.517.04c-2.251.102-2.251.102-4.025 2.279-3.125.125-3.125.125-6 0l-1 4z"/><path fill="#040404" d="M988 436h2v11h29l1 2h-32z"/><path fill="#050505" d="M879 440h1v15l2 1-1 1a104 104 0 0 0-.562 5.063l-.254 2.785L880 467h-2v-12h-28v-1h28v-13z"/><path fill="#362A10" d="M1153 441h1v20l5 1-4 1v24l-3-1c-.114-15.038-.013-29.992 1-45"/><path fill="#030406" d="M1072 446h5l-2 3c-.24 2.608-.373 5.119-.414 7.73l-.059 2.274c-.06 2.395-.106 4.789-.152 7.183l-.117 4.874q-.142 5.97-.258 11.939h-2z"/><path fill="#1D1A15" d="M878 487h3v34h-3z"/><path fill="#E5C258" d="M1038 496h11v7h-11z"/><path fill="#7A8EA2" d="M1074 449h1v36h8v1h-12l-1 3c-1.937-.312-1.937-.312-4-1l-1-3c6.75-2 6.75-2 9-2z"/><path fill="#FBE89E" d="M1084 178h1l.148 2.957.227 3.856c.07 1.264.14 2.529.21 3.832.176 3.483.176 3.483 2.415 6.355v3l2.313.438C1093 199 1093 199 1096 200c1.481.08 2.966.108 4.45.098l2.568-.01 2.67-.025 2.705-.014q3.303-.018 6.607-.049v2c-3.708.117-7.416.187-11.125.25l-3.172.102c-6.235.078-10.014-.078-14.703-4.352-3.495-5.243-3.2-10.889-3-17z"/><path fill="#242424" d="M845 127h1v19h7v2l-7 1c-1.187 3.56-1.351 6.973-1.562 10.688l-.131 2.126q-.158 2.593-.307 5.186h-1v-19h-11v-1l2.371-.184 3.067-.254c1.009-.08 2.018-.162 3.058-.246 2.44-.048 2.44-.048 3.504-1.316.156-1.34.25-2.688.316-4.035l.127-2.451.12-2.577.13-2.587q.159-3.175.307-6.35"/><path fill="#5F9681" d="M828 370h6v2l-1.723.559c-6.728 2.527-10.889 6.05-14.277 12.441-1.053 3.65-1.654 7.221-2 11h-1c-.83-7.354-.944-12.756 3.688-18.812 3.467-4.108 3.467-4.108 7.082-4.45L828 373z"/><path fill="#050505" d="M1011 304h2c.058 4.458.094 8.916.125 13.375.017 1.271.034 2.542.05 3.852l.02 3.671.032 3.396C1013 331 1013 331 1011 333v-4h-16v-1l15-1z"/><path fill="#090909" d="M855 128h2c.112 12.714-.07 25.318-1 38h-1l-.184-3.613-.254-4.7-.119-2.38-.127-2.295-.11-2.11c-.162-2.124-.162-2.124-1.206-4.902h-7v-1h9z"/><path fill="#030208" d="M1131 480h1v13q-6.874.08-13.75.125l-3.945.05-3.79.02-3.49.032C1104 493 1104 493 1100 491l30-1z"/><path fill="#171717" d="M763 167h19l-2 2 1 2h-18z"/><path fill="#0D0D0D" d="m970 409 2 1v5h16l1 3h-17l-1 2c-1-1-1-1-1.098-3.285l.035-2.777.028-2.786z"/><path fill="#0C0B0A" d="M999 283v1c-21.392 1.218-42.604.776-64 0v-1c21.379-.723 42.631-1.373 64 0"/><path fill="#E7E7E7" d="M857 226h52v1h-37v2h-7v-2h-7l-1 2z"/><path fill="#020202" d="M1023 431v5l-2-1c-2.177-.155-4.358-.25-6.54-.316l-3.944-.127-4.141-.12-4.164-.13q-5.106-.16-10.211-.307v-2a57851 57851 0 0 1 22.46-.781l3.65-.127c1.63-.052 3.26-.092 4.89-.092"/><path fill="#1D1D1D" d="M1187 354h2l-1 16-3-2v-9h-31v-1l2.814-.044q5.16-.092 10.32-.218 2.235-.051 4.47-.084c2.14-.034 4.28-.086 6.42-.142l3.903-.08L1185 357z"/><path fill="#0E0D0D" d="M848 333c5.738 1.614 11.18 5.992 14.262 11.086.911 2.363.576 3.568-.262 5.914-2.437-1-2.437-1-5-3-.764-2.727-.86-5.142-1-8l-2.312-.437C851 338 851 338 848 337z"/><path fill="#100601" d="m1113 291-1 9-3 1v-9h-37v-1q8.035-.251 16.07-.482 2.735-.08 5.468-.166 3.928-.122 7.857-.23l2.471-.083c3.333-.088 5.945-.102 9.134.961"/><path fill="#040404" d="M866 195h1l1 11 16 1c-3.737 2.491-5.745 2.207-10.187 2.125l-3.856-.055L867 209l-1 2-8-3v-1l7-1z"/><path fill="#FEF9D4" d="M1153 253h31v2q-5.898.252-11.798.482-2.993.121-5.985.25l-3.799.147-3.507.143C1156 256 1156 256 1153 255z"/><path fill="#70ACB7" d="M852 468h25v17l-11-2v-1h8v-2h2v-11h-24z"/><path fill="#352713" d="M852 487h4v15h-4z"/><path fill="#FCEEEA" d="M890 164h2v26h-4v-4h2z"/><path fill="#070707" d="M962 94h1q.253 7.284.482 14.57.08 2.474.166 4.948.123 3.57.23 7.142l.083 2.21c.13 4.51-.203 8.68-.961 13.13h-1c-1.525-14.008-.675-27.958 0-42"/><path fill="#EEDBDA" d="M794 285h6c.14 10.715-.267 21.312-1 32h-1l-1-13h-1v-6h1l1-12z"/><path fill="#EDF9F7" d="m772 498 19 1v3h-17v-2h-2z"/><path fill="#404040" d="M874 357h22v1l8 1v1h-30z"/><path fill="#080F12" d="M1185 328h1v8h2c.081 2.584.14 5.165.188 7.75l.076 2.21c.065 4.827-.226 5.989-3.264 10.04z"/><path fill="#EDEDED" d="M781 149h1v18h-19v-1l13-1v-3l4-1z"/><path fill="#202020" d="M1033 447h15v3h-24v-1l9-1z"/><path fill="#381805" d="M1035 480h1l1 23h-3a2713 2713 0 0 1-.062-10.375l-.026-2.984-.01-2.852-.016-2.634C1034 482 1034 482 1035 480"/><path fill="#050003" d="M1058.816 152.902q2.374.01 4.746.036l2.444.013q2.997.02 5.994.049v3q-3.937.08-7.875.125l-2.262.05c-1.955.018-3.91-.072-5.863-.175l-2-2c1-1 1-1 4.816-1.098"/><path fill="#545454" d="M1053 95h1v8h34v1l-3.181.06c-3.888.076-7.775.165-11.663.257q-2.526.059-5.052.105c-2.417.045-4.835.103-7.252.164l-2.29.035c-4.24-.018-4.24-.018-7.562 2.379v-5h2z"/><path fill="#090809" d="m1161.125 145.438 3.883.308L1168 146v1l9 1v1h-24l-1-3c3.053-1.526 5.758-.838 9.125-.562"/><path fill="#F8F3D3" d="M863 173v13l-4 1a355 355 0 0 1-.187-5.875l-.106-3.305L859 175c3-2 3-2 4-2"/><path fill="#FEFCDE" d="M1021 482h2c.125 7.625.125 7.625-1 11h-18v-1h12v-2l4 1-.062-2.812C1020 485 1020 485 1021 482"/><path fill="#410C06" d="M1043 286c2.096 3.362 2.096 5.295 1.25 9.125-.18.869-.36 1.738-.547 2.633C1043 300 1043 300 1041 302a94 94 0 0 1-7.625.125l-2.14-.027A625 625 0 0 1 1026 302v-1h14v-12l2 1z"/><path fill="#5A5C5E" d="M1028 103h19v1h-15v2h15v1h-19z"/><path fill="#5A9BA7" d="M852 405h2l2 2c2.069.643 2.069.643 4 1-.75 1.938-.75 1.938-2 4-2.125.75-2.125.75-4 1v2h-2z"/><path fill="#332321" d="m1006.684 166.886 3.539.016 3.818.01 4.022.025q2.016.008 4.033.014 4.952.018 9.904.049v1l-26 1-1 4 3 1h-5c-.043-2-.04-4 0-6 1-1 1-1 3.684-1.114"/><path fill="#0C1116" d="M1077 446a62 62 0 0 1 7.625-.187l2.14.04c1.746.036 3.49.09 5.235.147v3h-17z"/><path fill="#030303" d="M855 210h1l1 12 6 1v2l-2.937.375L857 226l-1 2h-10v-1l8-1z"/><path fill="#060201" d="M879 472h1c1.413 13.37.701 26.6 0 40h-1c-.2-4.229-.383-8.458-.562-12.687l-.17-3.573c-.33-7.997-.065-15.776.732-23.74"/><path fill="#83A3BC" d="M1090 396h1l1 14-2 1a78 78 0 0 0-2 5h-2v-9l4 1z"/><path fill="#191919" d="M762 190h19v3h-19z"/><path fill="#EDC445" d="M1087 194c2.62.973 4.848 1.89 7.125 3.531 3.904 1.995 7.361 2.03 11.688 2.156l2.388.104c1.933.082 3.866.147 5.799.209v1c-2.834.082-5.665.14-8.5.188l-2.398.076c-5.703.07-9.969-.692-15.102-3.264-.717-2.109-.717-2.109-1-4"/><path fill="#D6775D" d="M868 183h8v5h-8z"/><path fill="#4C8690" d="M883 469h17v17l-3-1h2a675 675 0 0 0-.375-6.437c-.07-1.195-.14-2.39-.21-3.622-.138-.97-.274-1.94-.415-2.941-2.833-1.416-5.475-1.346-8.625-1.562l-3.602-.254L883 470z"/><path fill="#060606" d="M988 415h5l-2 3c-.46 3.198-.46 3.198-.625 6.688l-.227 3.574L990 431h-2z"/><path fill="#E8FAFA" d="M864 401h26c-4.215 3.161-5.06 3.337-10 3v-2h-16z"/><path fill="#FBE7DA" d="m863 104 3 1c-2.217 4.434-4.777 6.466-9 9-.687-1.812-.687-1.812-1-4 1.188-1.75 1.188-1.75 3-3h4z"/><path fill="#7D9F6D" d="M823 376c0 3 0 3-2.375 5.5-3.698 4.128-3.99 9.17-4.625 14.5h-1c-1.227-11.332-1.227-11.332 1.781-15.422 2-1.704 3.98-3.204 6.219-4.578"/><path fill="#E1F2F1" d="M863 402h1c.081 1.437.14 2.874.188 4.313l.105 2.425c-.355 2.74-1.187 3.554-3.293 5.262l-1-2-2-1z"/><path fill="#040404" d="M908 206v3c-6.769.102-13.303.03-20-1v-1l8.875-.5 2.55-.145 2.442-.136 2.254-.127A80 80 0 0 1 908 206"/><path fill="#F5EFE6" d="m877 184 7 2v4h-7z"/><path fill="#F5F7F5" d="M966 507c1.858.09 3.712.246 5.563.438l3.066.308L977 508l-1 3c-1.457.081-2.916.14-4.375.188l-2.46.105L967 511l-2-3z"/><path fill="#F8EFCA" d="M1038 495h13l1 7h-2v5h-1v-11h-11z"/><path fill="#F4BE27" d="M1039 497h8v4h-8z"/><path fill="#0C0C0C" d="M760 452h15v2l-15 1z"/><path fill="#111" d="m1011 324 2 1c.125 2.875.125 2.875 0 6l-2 2v-4h-16v-1l15-1z"/><path fill="#F2F2F2" d="m913.285 193.902 2.778.036 2.785.027L921 194v3l-2.75.375c-2.852.548-4.749 1.236-7.25 2.625h-1a100 100 0 0 1 0-5c1-1 1-1 3.285-1.098"/><path fill="#03060C" d="M1091 397c2 1 2 1 3 3 .07 1.54.085 3.083.063 4.625l-.028 2.477L1094 409l-3-1z"/><path fill="#181818" d="m883 438-1 1c-.235 2.35-.414 4.706-.562 7.063l-.254 3.91L881 453h-1l-.113-2.484-.2-3.266-.175-3.234c-.543-3.198-1.363-4.642-3.512-7.016 3.486-1.202 3.68-1.213 7 1"/><path fill="#F5F9F6" d="M1072 442h12v3h-12z"/><path fill="#EEC84D" d="M1088 177v5h-2l1 12c-2-2-2-2-2.195-5.258l.07-3.867.055-3.883.07-2.992c2-1 2-1 3-1"/><path fill="#FDFBE5" d="M1040 491h5v3l3 1h-10z"/><path fill="#EAFAFC" d="M883 464h3v3h15v1h-19z"/><path fill="#CEC353" d="m826 374 4 1-11 10c0-3.78.997-4.461 3.5-7.187l1.969-2.168z"/><path fill="#17161B" d="m859 363 2 1-3 6 2 1c-3.375.125-3.375.125-7 0l-2-2 2.313-.187c2.918-.582 2.918-.582 4.5-3.375z"/><path fill="#525252" d="M809 113h2c-1.074 2.915-1.778 4.778-4 7-.462 2.433-.462 2.433-.625 5.125l-.227 2.758L806 130h-1q-.04-2.937-.062-5.875l-.036-3.305C805 118 805 118 806 116h2z"/><path fill="#19191A" d="M820 407c1.813.188 1.813.188 4 1 1.813 2.375 1.813 2.375 3 5l-1 3a243 243 0 0 1-3-2.812l-1.687-1.583C820 410 820 410 820 407"/><path fill="#1F1F1F" d="m756 110 2 3c-.875 2.688-.875 2.688-2 5h2c-.613 2.962-1.254 4.38-3 7q-.04-3.187-.062-6.375l-.036-3.586C755 112 755 112 756 110"/><path fill="#282627" d="M859 341c2.523 1.974 2.993 2.967 3.688 6.188L863 350l-5-3z"/><path fill="#F8F9F3" d="M1072 236h13l-2 4c-3-1-3-1-4-2a236 236 0 0 0-7-1z"/><path fill="#F8F7F4" d="M998 146h11l-1 3-3.875.188-2.18.105L1000 149z"/><path fill="#FCECE4" d="M1021 482h2v8l-3 1c-.074-3.343-.065-5.804 1-9"/><path fill="#CFD0D0" d="M1044 286h10l-4 2-1 1c-1.666.04-3.334.043-5 0z"/><path fill="#DB6C52" d="m870 99 1 4-2 1c-.652 2.025-.652 2.025-1 4l-4-1z"/><path fill="#F74F2A" d="M1025 484h7l-1 5-1-2c-2.527-.656-2.527-.656-5-1z"/><path fill="#4C9197" d="M819 369h13v1c-1.013.09-1.013.09-2.047.184l-2.703.253-2.672.247A44 44 0 0 0 818 372z"/><path fill="#25160F" d="M1043 286c1.535 2.433 2.03 3.671 1.758 6.578l-.633 2.672-.617 2.703L1043 300h-1c-1.517-9.41-1.517-9.41 1-14"/><path fill="#080808" d="M926 283h8l-5 5c-3-3.875-3-3.875-3-5"/><path fill="#121312" d="M846 206h8v3h-6v-2z"/><path fill="#FCE5DC" d="M868 97h5l-6 7-1-4h2z"/><path fill="#00080B" d="M879 472h1l1 15h-3z"/><path fill="#DAD9D1" d="M853 198h1v8h-8v-1l5-1z"/><path fill="#272727" d="m830 334 2 1c-2.354 3.923-4.645 4.839-9 6 2.22-2.908 3.93-4.953 7-7"/><path fill="#3D300B" d="M1109 293h2l1 7-3 1z"/><path fill="#A1BDD7" d="m1064 484 2 1 1 3c2 1.209 2 1.209 4 2h-7z"/><path fill="#6AA2A6" d="M852 405h1l.375 3.438L854 412l2 1h-2v2h-2z"/><path fill="#180201" d="m1004 235 4 2-3 6h-1z"/><path fill="#FDF4C3" d="M1084 192h2c2 3 2 3 2 6l2 1c-1.875-.312-1.875-.312-4-1-2-3-2-3-2-6"/><path fill="#D95537" d="m1001 167 3 1-1 6-3-1z"/><path fill="#DF745E" d="m861 110 1 2 2 1h-4l-1 4h-2c.564-3.27 1.5-4.826 4-7"/><path fill="#363636" d="M1053 95h1c.081 1.437.14 2.874.188 4.313l.105 2.425c-.355 2.74-1.187 3.554-3.293 5.262v-5h2z"/></svg>